<svg xmlns="http://www.w3.org/2000/svg" xmlns:xlink="http://www.w3.org/1999/xlink" viewBox="0 0 480 228">
  <g id="shadow_Image" data-name="shadow Image">
    <image id="shadow_Image-2" data-name="shadow Image" width="640" height="304" transform="scale(0.75)" xlink:href="shoe1.png"/>
  </g>
  <g id="back-top" class = "interact" style="isolation: isolate">
    <path d="M459,24c3.77,2.75,9.91,33.77,12,40.5,1,3.31,2.31,10.24,1.5,12-.8.56-.71.45-2.25.75-3-5.62-7.07-15-16.5-13.5-5.92,1-11.47,6.62-20.25,4.5l-17.25-6c.68-.81-.06-.06.75-.75,4.58-5.55,15.74-4.83,21.75-9s5-14.16,9-20.25C450.23,28.46,456.18,27.49,459,24Z" fill="" fill-rule="evenodd"/>
  </g>
  <g id="smalll-leather-side"  class = "interact"style="isolation: isolate">
    <path d="M339.75,168l-61.5,1.5c0-50.29,40.88-58.63,88.5-60.75C351.17,122.45,339.25,138.17,339.75,168Z" fill="" fill-rule="evenodd"/>
  </g>
  <g id="sole" class = "interact" style="isolation: isolate">
    <path d="M432,168.75l41.25-2.25v6c2.17,3.23,1,15.48-.75,18-1.2,1.7-4.71,3.77-6,6s-.36,5.07-2.25,6.75c-2.56,1.86-4.15.06-6.75.75-2,.54-4.91,3.42-7.5,4.5-.06,1.9-.09,2.79-.75,3.75-1.67,1.84-2.63,2.69-6,3-3-4.18-5.8-6.21-13.5-6L429,213c-2.55,1.16-3.07,2-6.75,2.25-3.25-4.56-5.84-6.24-14.25-6-1.59,3.66-3.12,5.79-8.25,6-1.48-2.62-2.95-1.51-3.75-5.25H384.75c-.93,3.66-3.26,5-7.5,5.25-1.44-3.24-3.14-1.52-3.75-6h-9.75c-.92,3.81-3.06,5.69-7.5,6-1.1-2.86-.88-.67-3-2.25-.83-.62-.74-3.24-1.5-3.75h-10.5l-1.5,4.5-6,.75c-1.13-1.39-2.08-1.29-3-3-.56-.8-.45-.71-.75-2.25h-9.75v3c-2.09,1.38-2.12,2.39-5.25,3-1.09-1.59-2.13-1.87-3-3.75-.56-.8-.45-.71-.75-2.25h-9c-1.32,3.42-2.37,5.54-6.75,6-1.89-4.76-4.85-5.59-12-5.25-.79,3.34-2.15,4.88-6,5.25-1.18-2.52-2.3-1.91-3-5.25h-9v3l-2.25.75a4.24,4.24,0,0,1-3.75.75c-5-3.83-2.72-4.76-12.75-4.5-1.38,4-2.26,5.82-7.5,6-3.29-4.6-6.57-5.51-15-5.25l-1.5,4.5-8.25.75c-2.38-4.19-6-4-12.75-3.75L201,216c-3.45.38-7.87,2.35-9.75,0l-.75-3.75h-9.75c-.81,3.08-2,3.37-3.75,5.25-2.26-.69-3-.7-6.75-.75-1.94-4.47-3.79-4.83-10.5-4.5-1.3,2.23-2.85,3.47-4.5,5.25a29,29,0,0,1-6.75-.75l-.75-2.25c-.56-.8-.45-.71-.75-2.25H136.5c-1.22,3.88-3.75,4-9,3.75-.77-.6-.21-.27-1.5-.75-1.12-3.37-.6-4.37-5.25-4.5-1.27-.86-3.67-.8-6-.75-1,3.81-2.81,4.51-7.5,4.5-.93-1.72-1.3-1.45-3-2.25-.06-1.9-.09-2.79-.75-3.75-1.06-.72-2.46-.73-4.5-.75-3.69-2.24-6.88,2.56-12,3-1.71-3-2.7-6.51-7.5-6.75-3.35-2.14-7.69,1.13-12,1.5-1.25-2.08-3.62-6.5-6-7.5-3.58-2.59-7.33-1.63-12.75-1.5-3.09-4.65-7-8.59-12.75-10.5H30.75v-.75C27.83,183,18.4,175.2,16.5,172.5h-.75V168c.66-1,.67-1.85.75-3.75a13.46,13.46,0,0,0,3-2.25c7.4,2.93,16.21,5.13,24.75,7.5l13.5.75c7.63,1.75,18.06,2,25.5,3.75l18.75.75c7,1.59,17.65,2.23,24,3.75l21-.75c15.45,3.42,52.1.88,65.25-2.25l8.25.75c16.48-4.58,34.5-1.58,51.75-5.25l15.75.75c7.42-2.62,15.44-1.5,21.75-3.75l6.75,1.5c10.71-2.11,19.54-1.41,33-1.5v.75h.75c-.07,2.32-.11,4.75.75,6,2.75,1.79,10.83.85,15,.75,3.57-2.21,13.63-.75,18.75-.75,15.14,0,33.48,1.83,47.25-.75Z" fill="" fill-rule="evenodd"/>
  </g>
  <g id="front"  class = "interact" style="isolation: isolate">
    <path d="M39.75,121.5l3.75,5.25,53.25,3.75c68.59,9.49,84,7.82,126.75,45.75-47.36,5.49-168.31,7.31-207-15L15,136.5Z" fill="" fill-rule="evenodd"/>
  </g>
  <g id="front-mesh"  class = "interact"style="isolation: isolate">
    <path d="M106.5,98.25c28.75,10.7,72.84,7.67,105,9-12.59,9.86-21.84,19.15-33,30C140.36,122.12,75.56,139,42,122.25l.75-3Z" fill="" fill-rule="evenodd"/>
  </g>
  <g id="logo"  class = "interact"style="isolation: isolate">
    <path d="M276.75,171c-19.64,1.14-37.08,4.89-57,5.25-5.95-9.28-13.17-18.86-22.5-24.75-5.39-3.4-16.28-6.75-18.75-12.75-.56-.8-.45-.71-.75-2.25,14.86-13.7,28.19-30.32,49.5-37.5,11.92-4,27.2-3,40.5-6H279c8.07-1.84,17.47-2.25,27.75-2.25h15c20.56-4.62,37.5-2.67,57.75-7.5,16.13-3.85,33.79-5.72,49.5-10.5,10.43-3.18,20.39-8.13,33-8.25,3.3,4.25,6,6.1,7.5,12.75-3.86,2.52-7.42,6.3-12,8.25-8.3,3.53-17,3.15-26.25,6-25.37,7.79-55,11.59-81.75,18.75-12.61,3.38-25.14,1.33-36.75,5.25-20.37,6.87-24.89,14.59-31.5,35.25C279.4,156.52,276.92,163.57,276.75,171Z" fill="" fill-rule="evenodd"/>
  </g>
  <g id="back"  class = "interact"style="isolation: isolate">
    <path d="M432,167.25v-21l-81.75,2.25-1.5,19.5H348l-6-.75c5.76-105.51,94.12-45.92,130.5-90.75,9.19,8.16,10.14,70.34,1.5,81C466,167.41,450.83,168,432,167.25Z" fill="" fill-rule="evenodd"/>
  </g>
  <g id="laces"  class = "interact"style="isolation: isolate">
    <path d="M281.25,17.25c14.55-.34,21,5.63,29.25,11.25v.75H309c-4.18,2.81-10.74,2.67-15,5.25C278.27,44,261.93,50,243.75,57.75c-10.38,4.41-20.5,11.88-30.75,16.5C201.12,79.6,189.56,84.06,177.75,90c-18.68,9.4-39.69,17.24-67.5,11.25l-2.25-3,2.25-.75c2.56-2,20.79-7.78,25.5-6.75S143.57,94.21,150,93a29.34,29.34,0,0,0,1.5-9.75c-.56-.8-.45-.71-.75-2.25,2.39-1.38,3.94-2.52,7.5-3,2.21,4.54,5.77,5.46,12.75,5.25V82.5h.75c.23-3.68-.05-11.4,3-12.75,1.26-1,2.36-1.23,4.5-1.5,2.22,3.28,6,5,11.25,5.25.77-.6.21-.27,1.5-.75a21.7,21.7,0,0,0,3-9,6.64,6.64,0,0,1-2.25-2.25l2.25-.75c5.5-4,16.95,5.17,21-1.5,1.93-2.34,1.45-5.87.75-9,2.86-.4,3.82-1.9,6-2.25a25,25,0,0,0,16.5,2.25v-1.5c-2-2.6-3.46-6.43-5.25-9h5.25c4.14-2.56,16.9,1.14,21.75.75.63-2.18,1-1.93,1.5-4.5-1.88-2.11-4.35-4.61-5.25-7.5H264c3.2,2.29,15,2.44,18,0h.75C283.46,23.46,283.32,20.76,281.25,17.25Z" fill="" fill-rule="evenodd"/>
  </g>
  <g id="leather-side"  class = "interact"style="isolation: isolate">
    <path d="M308.25,33c21,5.16,34.93,27.78,57,34.5,23.62,7.2,45.54-10.18,63,0l-.75,2.25c-43.1,23.42-107.11,13.18-165,22.5-31.36,5-62.26,19.92-99,9l-.75-.75.75-1.5C209,72.62,259.47,56,308.25,33Z" fill="" fill-rule="evenodd"/>
  </g>
</svg>
