<svg xmlns="http://www.w3.org/2000/svg" xmlns:xlink="http://www.w3.org/1999/xlink" viewBox="0 0 476.25 228">
  <g id="shadow_Image" data-name="shadow Image">
    <image id="shadow_Image-2" data-name="shadow Image" width="635" height="304" transform="scale(0.75)" xlink:href="trainer-11.png"/>
  </g>
  <g id="side-laces" class = "interact" style="isolation: isolate">
    <path d="M285.75,17.25c10.42,0,20.93,6.2,23.25,14.25-8,3.11-12.67,7.71-18.75,12-1.32.93-5.8-.91-8.25,0-16.12,6-32.63,15.23-49.5,22.5-39.43,17-76.94,49.34-123.75,36L108,98.25c6-6.32,18.73-3.16,27-7.5l6-8.25,17.25-5.25c1.29,4.75,5.25,7.44,11.25,7.5l2.25-.75c-.06-2.51-.06-12.25,2.25-13.5,6.29-2.69,12.86,4.48,20.25,1.5l.75-2.25-3-7.5,6-3.75c6.36,1.25,9.62,3.7,16.5,3,1.22-2.63.74-1.65,3-3L216,51.75l6-3c7.06,1.57,10.84,6.22,18,2.25,0-5.59-1.14-6.48-3-9.75,3.41-1.32,2.32-.93,3-3,7.88.42,11.66,4.28,19.5,2.25.29-5.26.68-2.74,2.25-5.25l-2.25-4.5.75-.75c9.32,0,17.53,2,24.75-.75l-3-10.5Z" fill="" fill-rule="evenodd"/>
  </g>
  <g id="logo" class = "interact" style="isolation: isolate">
    <path d="M452.25,67.5c6.79,1,11.74,2.52,17.25,6V78l-3,4.5c-26.52,5.39-56.61,13.44-83.25,21.75-45.21,14.1-91.86-.63-106.5,45.75-2.12,6.7,1.11,12.42.75,18-7.34,2.52-44.16,10.13-54.75,6-14.93-6.52-18.27-28.11-37.5-30.75,6.49-22.16,27.57-26.58,45.75-37.5,4.52-2.71,10.38-9.09,15.75-10.5C251,94.13,284.61,90,291,90.75c7.82,1,20.84,3.32,32.25,1.5,18.83-3,37.65-1.44,52.5-8.25l19.5-.75A296.16,296.16,0,0,1,429,72.75C437,70.89,444.75,71.4,452.25,67.5Z" fill="" fill-rule="evenodd"/>
  </g>
  <g id="back-shoe" class = "interact" style="isolation: isolate">
    <path d="M432,166.5V174h-1.5l-80.25.75L349.5,168c-4.1.14-6.82-.19-9-1.5,2.14-6,2.48-11.18-.75-16.5l4.5-.75c-.16-33.15,23.34-41.72,47.25-48.75,12.53-3.68,24-.27,33-4.5,10.76-5,47-18.14,51.75-17.25V151.5c-1.85,4.07-6.25,8.34-8.25,12.75Z" fill="" fill-rule="evenodd"/>
  </g>
  <g id="side-leather" class = "interact" style="isolation: isolate">
    <path d="M448.5,21c4.66-.17,8.55.18,11.25,1.5,3.37,7.75,15.09,45.15,9.75,52.5l-1.5-.75c-4.93-12-21.71-8.39-36-5.25.55,2.78.35,2.92-.75,5.25-11.09,1.82-18,6.77-27.75,9.75l-45,3.75c-14.92,2.48-41.15,2.22-52.5,9-3.72,2.22-55.19.26-65.25,1.5-9,1.11-17.93,7.32-24.75,9l-12-3-47.25-1.5V102l1.5-2.25c20.4-2.07,30.91-14.55,48.75-22.5C232.16,66,257.54,53.48,282,43.5c3.21-1.31,5.79,1.12,8.25,0,8-3.64,9.73-11.35,23.25-11.25C337.3,61.09,374.3,71,417,54.75c5.81-2.21,10.81-2.39,15-6C441.05,41,436.4,29.74,448.5,21Z" fill="" fill-rule="evenodd"/>
  </g>
  <g id="sole" class = "interact" style="isolation: isolate">
    <path d="M432,168.75l41.25-2.25c.84,19-2.73,25.1-9,37.5-7.11.79-8.74,3.76-14.25,5.25-22.24,6-51.66-5.76-70.5,6-6.39-2.56-5.59-6.05-15.75-6-1.26,3.49-2.46,4.2-5.25,6-6.66-2.61-6.52-6.08-17.25-6-1.13,3.74-1.33,3.64-4.5,5.25-7.31-1.54-6.38-5.19-16.5-5.25-.67,3.92-1.31,4.13-3.75,6H315c-2.94-4.25-4.18-6.24-12-6l-4.5,6c-6.52-1.8-5.37-5.19-15-5.25l-3,5.25h-3c-2.37-4.48-4.58-5.63-12-5.25-1,6.09-5.15,5.05-8.25,3l-1.5-3-9.75.75c-.8,4.18-1.83,4.61-6,5.25-4.47-3.26-8.13-7-16.5-4.5-.48,2.73-.3,2.27-1.5,3.75-8.2,1.35-10.05-2.79-20.25-3-1.4,4.91-3.64,3.92-8.25,5.25l-3-5.25h-9.75L177,217.5c-3.15-.89-11.29-8-17.25-5.25-3.84,1.79-2,4.78-9,5.25-4.84-3.41-4.8-5.52-14.25-5.25-1.92,4.22-5.4,4.3-10.5,3l-1.5-4.5-9.75-.75c-1.41,3.83-2.47,4.33-7.5,4.5a27.06,27.06,0,0,1-3.75-6.75c-8.74-.4-8.75,2.06-16.5,3L83.25,204c-7-.47-9.24.81-15.75,1.5-1.59-2.4-3.49-5.93-6-7.5-4.31-2.07-7.89.68-12.75-1.5l-4.5-6.75c-4.1-2.84-8.62-1.1-13.5-3.75s-9.83-10.07-15-13.5L18,162.75l1.5-.75c53.15,21.47,164.06,18.21,226.5,12,25.54-2.54,51.86-2.38,70.5-4.5,9.87-1.12,22-4,33.75-.75l.75,6.75,81-1.5Z" fill="" fill-rule="evenodd"/>
  </g>
  <g id="top-mesh" class = "interact" style="isolation: isolate">
    <path d="M104.25,98.25H108c2.25,9.23,14.84,7,21.75,7.5,29.91,2.36,58.06-4.76,84.75.75v.75H210c-2.92,5.88-11.86,6.28-16.5,10.5-3.56,3.24-9.31,13.17-12.75,18.75-30.89-5.59-58.66-3.61-90.75-10.5-3.83-.82-5.58,3.25-7.5,3.75-7.44,1.95-34.87-3.31-39.75-6L41.25,120l2.25-1.5C57,109.2,88.72,107.43,104.25,98.25Z" fill="" fill-rule="evenodd"/>
  </g>
  <g id="back-mesh" class = "interact" style="isolation: isolate">
    <path d="M300,126c15.84,4.54,32.08,18.22,42.75,21.75v1.5l-3,1.5c4.08,4.06,2.44,10.76,0,17.25-15.21-1.53-53.48,7.48-65.25,3l4.5-1.5c-2.75-9.82,4.1-23.71,6.75-33l6-1.5c.26-4.32.17-4.05,2.25-6.75Z" fill="" fill-rule="evenodd"/>
  </g>
  <g id="front-shoe" class = "interact" style="isolation: isolate">
    <path d="M40.5,120.75c10.44,7,17.56,3.43,28.5,7.5,6.36-6.47,36.41.86,49.5,1.5,41.41,2,70.21,7.58,102.75,44.25v1.5l-1.5.75L147,178.5c-44.39-6.94-91.16-6-128.25-16.5C3.51,133.71,27,132.59,40.5,120.75Z" fill="" fill-rule="evenodd"/>
  </g>
</svg>
